<svg viewBox="0 0 32 32" fill="none" xmlns="http://www.w3.org/2000/svg">
  <!-- Outer strategic ring - simplified from Design 1 -->
  <circle
    cx="16"
    cy="16"
    r="13"
    fill="none"
    stroke="#3b82f6"
    strokeWidth="1.2"
    strokeOpacity="0.4"
  />
  
  <!-- Main eye shape - circular for better scaling -->
  <circle
    cx="16"
    cy="16"
    r="9"
    fill="#ffffff"
    stroke="#1e40af"
    strokeWidth="1.8"
  />
  
  <!-- Iris - with subtle gradient effect -->
  <circle
    cx="16"
    cy="16"
    r="5.5"
    fill="#3b82f6"
    fillOpacity="0.15"
  />
  
  <!-- Inner iris ring for depth -->
  <circle
    cx="16"
    cy="16"
    r="4.2"
    fill="none"
    stroke="#1e40af"
    strokeWidth="0.8"
    strokeOpacity="0.6"
  />
  
  <!-- Pupil - bold and clear -->
  <circle cx="16" cy="16" r="2.2" fill="#0f172a" />
  <circle cx="16" cy="16" r="0.9" fill="white" fillOpacity="0.95" />
  
  <!-- Strategic awareness rays - from Design 1 but refined -->
  <g stroke="#3b82f6" strokeWidth="1.5" strokeOpacity="0.7">
    <!-- Primary cardinal rays -->
    <line x1="16" y1="1.5" x2="16" y2="4.5" />
    <line x1="16" y1="27.5" x2="16" y2="30.5" />
    <line x1="1.5" y1="16" x2="4.5" y2="16" />
    <line x1="27.5" y1="16" x2="30.5" y2="16" />
  </g>
  
  <!-- Secondary diagonal rays - lighter -->
  <g stroke="#3b82f6" strokeWidth="1" strokeOpacity="0.5">
    <line x1="6.1" y1="6.1" x2="8.2" y2="8.2" />
    <line x1="23.8" y1="23.8" x2="25.9" y2="25.9" />
    <line x1="25.9" y1="6.1" x2="23.8" y2="8.2" />
    <line x1="8.2" y1="23.8" x2="6.1" y2="25.9" />
  </g>
  
  <!-- Knowledge points - from classical design but simplified -->
  <g fill="#3b82f6" fillOpacity="0.6">
    <circle cx="16" cy="3" r="1.2" />
    <circle cx="16" cy="29" r="1.2" />
    <circle cx="3" cy="16" r="1.2" />
    <circle cx="29" cy="16" r="1.2" />
  </g>
</svg>